<?xml version="1.0"?><!DOCTYPE svg  PUBLIC '-//W3C//DTD SVG 1.1//EN'  'http://www.w3.org/Graphics/SVG/1.1/DTD/svg11.dtd'><svg height="256px" style="shape-rendering:geometricPrecision; text-rendering:geometricPrecision; image-rendering:optimizeQuality; fill-rule:evenodd; clip-rule:evenodd" version="1.1" viewBox="0 0 256000 255998" width="256px" xml:space="preserve" xmlns="http://www.w3.org/2000/svg" xmlns:xlink="http://www.w3.org/1999/xlink"><defs><style type="text/css">
   <![CDATA[
    .fil4 {fill:none}
    .fil3 {fill:#81C34D}
    .fil2 {fill:#FEBF2C;fill-rule:nonzero}
    .fil0 {fill:#EF494D;fill-rule:nonzero}
    .fil1 {fill:#0067AB;fill-rule:nonzero}
   ]]>
  </style></defs><g id="Layer_x0020_1"><g id="_394460384"><path class="fil0" d="M49702 141531l12968 0c-873,5762 -4270,10195 -9490,13455 -5230,3265 -11911,4889 -20025,4889 -10226,0 -18335,-2378 -24317,-7579 -5996,-5211 -8797,-12741 -8837,-22148 -87,-20173 13283,-30523 32503,-30731 21803,-236 33067,12046 32048,33384l-51614 44c799,11904 8132,18674 20284,18674 6594,0 13656,-2534 16480,-9988zm-36418 -17290l37890 0c-1060,-11216 -7641,-16178 -18536,-16525 -9211,-295 -18481,5614 -19354,16525z"/><path class="fil1" d="M76795 157749l-12556 0 382 -11345 0 -69695 12864 0 0 32393c4700,-5816 12953,-9663 21298,-9663 9085,0 16905,1594 23674,8322 5669,5635 8552,13686 8616,21752 81,10319 -3777,17850 -10191,23331 -6413,5479 -14214,7647 -23111,6926 -8812,-712 -15432,-4385 -20518,-9908l-458 7887zm466 -28850c390,11984 6220,22014 19446,22319 5586,128 10629,-1682 14696,-5504 4057,-3813 6325,-8874 6325,-16435 0,-7733 -2419,-12222 -6313,-15897 -3894,-3677 -8611,-5524 -14127,-5524 -11589,0 -20400,9564 -20027,21041z"/><path class="fil2" d="M178866 149798c-6802,8349 -15269,9940 -25014,9969 -10389,30 -22779,-4324 -24092,-17241 -292,-2877 828,-7604 2390,-9916 5214,-7717 16711,-9337 25165,-9710 9203,-407 16280,-420 20625,-477 -2,-1342 -12,-2883 -12,-3236 0,-7864 -7201,-11391 -15527,-11391 -8402,0 -14209,2592 -14859,8641l-13553 0c1460,-8239 5496,-12477 13947,-15105 4367,-1357 9425,-2189 15187,-2046 15538,385 27614,5463 27614,21853l0 13075c0,2733 -379,19566 414,23680l-11788 0c-607,-3367 -336,-5405 -497,-8096zm-990 -18823c-8638,-110 -20223,-550 -28736,2123 -7157,2248 -7941,11090 -2470,15466 8038,6430 24081,3432 29059,-5894 2138,-4002 2147,-7286 2147,-11695z"/><polygon class="fil3" points="220722,145539 198626,101581 183748,101581 213598,157749 202189,179289 216414,179289 255999,101581 242561,101581 "/></g></g><rect class="fil4" height="255998" width="255998" x="2"/></svg>