<?xml version="1.0"?><!DOCTYPE svg  PUBLIC '-//W3C//DTD SVG 1.1//EN'  'http://www.w3.org/Graphics/SVG/1.1/DTD/svg11.dtd'><svg enable-background="new 0 0 24 24" height="24px" id="Layer_1" version="1.1" viewBox="0 0 24 24" width="24px" xml:space="preserve" xmlns="http://www.w3.org/2000/svg" xmlns:xlink="http://www.w3.org/1999/xlink"><g id="icon"><circle cx="12" cy="12" fill="#F27224" r="11"/><path d="M10.4605,11.6514V7.4636c0,-0.1552,0.0155,-0.2482,0.2793,-0.2482h3.5518c0.6205,0,0.9617,0.5274,1.21,1.52l0.2016,0.7912h0.6048c0.1085,-2.2489,0.2014,-3.2261,0.2014,-3.2261s-1.52,0.1706,-2.4196,0.1706H9.5455L7.11,6.3934v0.6515l0.8222,0.1551c0.5739,0.1086,0.7132,0.2326,0.7601,0.7601c0,0,0.0466,1.551,0.0466,4.1104c0,2.559,-0.0466,4.0947,-0.0466,4.0947c0,0.4652,-0.1862,0.6358,-0.7601,0.7447L7.11,17.065v0.6511l2.4355,-0.0774h4.0637c0.9151,0,3.04,0.0774,3.04,0.0774c0.0464,-0.5585,0.3568,-3.0867,0.4033,-3.3656h-0.5739l-0.6049,1.3804c-0.4809,1.0855,-1.1787,1.1632,-1.9544,1.1632h-2.3112c-0.7756,0,-1.1479,-0.3103,-1.1479,-0.9771v-3.5365c0,0,1.6906,0,2.2799,0.0466c0.4344,0.0311,0.6979,0.1552,0.8377,0.76l0.1862,0.8066h0.6666l-0.0464,-2.0321l0.093,-2.0472h-0.6668l-0.217,0.8995c-0.1398,0.5894,-0.2327,0.6982,-0.8377,0.76c-0.6823,0.0778,-2.2956,0.0622,-2.2956,0.0622v0.0154h0.0003L10.4605,11.6514L10.4605,11.6514z" fill="#FFFFFF"/><path d="M4.2218,19.7782C6.2124,21.7688,8.9624,23,12,23c6.0751,0,11,-4.9249,11,-11c0,-3.0376,-1.2312,-5.7876,-3.2218,-7.7782L4.2218,19.7782z" fill="#231F20" opacity="0.1"/></g></svg>